<svg width="1681" height="1681" viewBox="0 0 1681 1681" fill="none" xmlns="http://www.w3.org/2000/svg">
<path d="M576.834 259.8C561.901 259.8 548.168 260.867 535.634 263C530.301 263.8 524.968 265 519.634 266.6C514.568 267.933 509.768 269.667 505.234 271.8C500.968 273.933 497.101 276.467 493.634 279.4C490.434 282.067 488.301 285.4 487.234 289.4C486.168 293.133 488.034 297.667 492.834 303C497.901 308.067 503.901 313.4 510.834 319C517.768 324.6 524.834 329.933 532.034 335C539.234 340.067 544.701 344.2 548.434 347.4C558.301 356.2 567.501 365.8 576.034 376.2C584.568 386.333 590.834 397 594.834 408.2C599.101 419.4 600.568 431 599.234 443C597.901 454.733 592.434 466.467 582.834 478.2C574.568 488.333 564.701 496.333 553.234 502.2C542.034 508.067 530.034 512.333 517.234 515C504.701 517.933 491.901 519.267 478.834 519C465.768 519 453.634 517.933 442.434 515.8L452.434 463.4C456.968 464.2 462.834 464.733 470.034 465C477.234 465 484.834 464.6 492.834 463.8C500.834 462.733 508.568 461.267 516.034 459.4C523.768 457.267 530.168 454.467 535.234 451C540.301 447.267 543.634 442.733 545.234 437.4C546.834 432.067 545.634 425.667 541.634 418.2C535.768 408.067 527.901 399.133 518.034 391.4C508.434 383.4 498.834 375.933 489.234 369C479.901 362.333 471.101 355.933 462.834 349.8C454.834 343.4 448.168 336.467 442.834 329C437.768 321.533 434.434 313.4 432.834 304.6C431.234 295.533 432.301 285.133 436.034 273.4C439.768 261.933 445.768 252.333 454.034 244.6C462.568 236.6 472.034 230.067 482.434 225C493.101 219.933 504.034 216.2 515.234 213.8C526.434 211.133 536.568 209.267 545.634 208.2C554.968 207.133 562.568 206.6 568.434 206.6C574.568 206.333 577.634 206.2 577.634 206.2L576.834 259.8ZM738.203 222.2C754.736 222.2 770.07 226.067 784.203 233.8C798.336 241.533 810.603 252.2 821.003 265.8C830.603 278.6 838.203 293.267 843.803 309.8C849.403 326.067 852.203 343.533 852.203 362.2C852.203 380.867 849.403 398.467 843.803 415C838.203 431.267 830.603 445.8 821.003 458.6C810.603 472.2 798.336 482.867 784.203 490.6C770.07 498.333 754.736 502.2 738.203 502.2C721.67 502.2 706.336 498.333 692.203 490.6C678.07 482.867 665.803 472.2 655.403 458.6C645.803 445.8 638.203 431.267 632.603 415C627.003 398.467 624.203 380.867 624.203 362.2C624.203 343.533 627.003 326.067 632.603 309.8C638.203 293.267 645.803 278.6 655.403 265.8C665.803 252.2 678.07 241.533 692.203 233.8C706.336 226.067 721.67 222.2 738.203 222.2ZM778.603 298.6C773.27 291.667 767.136 286.2 760.203 282.2C753.27 278.2 745.936 276.2 738.203 276.2C730.47 276.2 723.136 278.2 716.203 282.2C709.27 286.2 703.136 291.667 697.803 298.6C691.67 306.6 686.736 316.067 683.003 327C679.536 337.667 677.803 349.4 677.803 362.2C677.803 375 679.536 386.867 683.003 397.8C686.736 408.467 691.67 417.8 697.803 425.8C703.136 432.733 709.27 438.333 716.203 442.6C723.136 446.6 730.47 448.6 738.203 448.6C745.936 448.6 753.27 446.6 760.203 442.6C767.136 438.333 773.27 432.733 778.603 425.8C784.736 417.8 789.536 408.467 793.003 397.8C796.47 386.867 798.203 375 798.203 362.2C798.203 349.4 796.47 337.667 793.003 327C789.536 316.067 784.736 306.6 778.603 298.6ZM948.812 259.8V506.6H895.213V261L848.812 261.8L848.012 208.2L993.613 205.4L994.413 259L948.812 259.8ZM1115.55 222.2C1132.08 222.2 1147.41 226.067 1161.55 233.8C1175.68 241.533 1187.95 252.2 1198.35 265.8C1207.95 278.6 1215.55 293.267 1221.15 309.8C1226.75 326.067 1229.55 343.533 1229.55 362.2C1229.55 380.867 1226.75 398.467 1221.15 415C1215.55 431.267 1207.95 445.8 1198.35 458.6C1187.95 472.2 1175.68 482.867 1161.55 490.6C1147.41 498.333 1132.08 502.2 1115.55 502.2C1099.01 502.2 1083.68 498.333 1069.55 490.6C1055.41 482.867 1043.15 472.2 1032.75 458.6C1023.15 445.8 1015.55 431.267 1009.95 415C1004.35 398.467 1001.55 380.867 1001.55 362.2C1001.55 343.533 1004.35 326.067 1009.95 309.8C1015.55 293.267 1023.15 278.6 1032.75 265.8C1043.15 252.2 1055.41 241.533 1069.55 233.8C1083.68 226.067 1099.01 222.2 1115.55 222.2ZM1155.95 298.6C1150.61 291.667 1144.48 286.2 1137.55 282.2C1130.61 278.2 1123.28 276.2 1115.55 276.2C1107.81 276.2 1100.48 278.2 1093.55 282.2C1086.61 286.2 1080.48 291.667 1075.15 298.6C1069.01 306.6 1064.08 316.067 1060.35 327C1056.88 337.667 1055.15 349.4 1055.15 362.2C1055.15 375 1056.88 386.867 1060.35 397.8C1064.08 408.467 1069.01 417.8 1075.15 425.8C1080.48 432.733 1086.61 438.333 1093.55 442.6C1100.48 446.6 1107.81 448.6 1115.55 448.6C1123.28 448.6 1130.61 446.6 1137.55 442.6C1144.48 438.333 1150.61 432.733 1155.95 425.8C1162.08 417.8 1166.88 408.467 1170.35 397.8C1173.81 386.867 1175.55 375 1175.55 362.2C1175.55 349.4 1173.81 337.667 1170.35 327C1166.88 316.067 1162.08 306.6 1155.95 298.6Z" fill="#FFB300"/>
<path d="M384.616 1489.4L481.016 1202.2L537.416 1213L609.416 1500.2L557.416 1513.4L542.216 1453.4L452.616 1454.6L435.416 1506.2L384.616 1489.4ZM529.016 1400.2L504.216 1300.6L470.616 1401L529.016 1400.2ZM624.537 1519.4L636.138 1220.6L686.938 1210.2L767.738 1383.4L840.538 1230.6L891.338 1240.6L903.338 1509.8L849.738 1512.2L842.538 1350.6L784.938 1471.8L750.538 1473L685.338 1333L678.138 1521.4L624.537 1519.4ZM901.803 1489.4L998.203 1202.2L1054.6 1213L1126.6 1500.2L1074.6 1513.4L1059.4 1453.4L969.803 1454.6L952.603 1506.2L901.803 1489.4ZM1046.2 1400.2L1021.4 1300.6L987.803 1401L1046.2 1400.2ZM1212.88 1265.8V1512.6H1159.28V1267L1112.88 1267.8L1112.07 1214.2L1257.68 1211.4L1258.48 1265L1212.88 1265.8Z" fill="#FFB300"/>
<path d="M274.822 824.6C294.022 817.8 309.622 808.2 321.622 795.8C334.022 783 341.022 771 342.622 759.8C344.622 748.2 340.222 739 329.422 732.2C318.622 725 299.422 723.2 271.822 726.8L274.822 824.6ZM385.222 847.4C399.622 853 412.822 861.4 424.822 872.6C436.822 883.4 446.022 897.8 452.422 915.8C459.222 935.4 460.622 954 456.622 971.6C453.022 988.8 445.822 1004.4 435.022 1018.4C424.622 1032.4 411.422 1044.8 395.422 1055.6C379.822 1066 363.222 1074.2 345.622 1080.2C324.822 1087.4 300.022 1092 271.222 1094C242.822 1096.4 214.622 1095.4 186.622 1091L185.422 1008.8C187.822 1009.6 190.222 1010.2 192.622 1010.6C195.022 1010.6 197.422 1010.8 199.822 1011.2L189.622 659C210.822 653.4 234.222 649.2 259.822 646.4C285.422 643.6 309.622 644.6 332.422 649.4C355.622 653.8 375.422 663.2 391.822 677.6C408.622 692 418.822 713.6 422.422 742.4C424.822 762 422.622 780.6 415.822 798.2C409.422 815.4 399.622 831.2 386.422 845.6C386.422 846 386.022 846.6 385.222 847.4ZM285.022 1014.8C304.622 1013.2 321.022 1009.2 334.222 1002.8C347.822 996.4 358.222 988.8 365.422 980C372.622 971.2 376.422 962.2 376.822 953C377.222 943.4 373.822 935 366.622 927.8C359.822 920.2 349.222 914.4 334.822 910.4C320.822 906.4 302.622 905.6 280.222 908L285.022 1014.8ZM461.783 1058.6L606.383 627.8L690.983 644L798.983 1074.8L720.983 1094.6L698.183 1004.6L563.783 1006.4L537.983 1083.8L461.783 1058.6ZM678.383 924.8L641.183 775.4L590.783 926L678.383 924.8ZM834.266 1098.2L824.066 719.6L899.066 698.6L1035.87 936.8L1076.07 665.6L1155.87 677L1098.87 1062.8L1023.87 1076.6L908.666 876.2L914.666 1095.8L834.266 1098.2ZM1375.85 740.6C1366.25 734.2 1357.05 730 1348.25 728C1339.45 726 1331.05 726 1323.05 728C1315.05 729.6 1307.65 732.8 1300.85 737.6C1294.05 742.4 1287.65 748.4 1281.65 755.6C1272.45 766.4 1264.65 780.2 1258.25 797C1251.85 813.8 1247.05 831.6 1243.85 850.4C1241.05 869.2 1240.05 888 1240.85 906.8C1242.05 925.6 1245.25 942.8 1250.45 958.4C1256.45 975.6 1265.65 989.2 1278.05 999.2C1290.85 1008.8 1304.05 1014.2 1317.65 1015.4C1331.25 1016.6 1343.85 1013 1355.45 1004.6C1367.05 996.2 1374.65 982.4 1378.25 963.2L1299.65 957.8L1305.05 877.4L1461.05 888.8L1461.65 925.4C1462.05 960.2 1456.85 989.6 1446.05 1013.6C1435.65 1037.6 1421.85 1056.4 1404.65 1070C1387.45 1083.6 1368.25 1092.2 1347.05 1095.8C1325.85 1099.4 1304.85 1098.2 1284.05 1092.2C1263.25 1086.2 1243.85 1075.8 1225.85 1061C1207.85 1045.8 1193.65 1026.2 1183.25 1002.2C1173.25 980.2 1166.65 956.2 1163.45 930.2C1160.25 904.2 1160.05 878 1162.85 851.6C1165.65 825.2 1171.45 799.8 1180.25 775.4C1189.45 750.6 1201.25 728.8 1215.65 710C1227.65 694.4 1241.05 681.2 1255.85 670.4C1270.65 659.6 1286.65 652.2 1303.85 648.2C1321.45 643.8 1339.85 643.6 1359.05 647.6C1378.65 651.2 1399.05 660 1420.25 674L1375.85 740.6Z" fill="#FFB300"/>
</svg>
